<svg xmlns="http://www.w3.org/2000/svg" xmlns:xlink="http://www.w3.org/1999/xlink"  width="200" height="200" viewBox="0 0 78 78">
    <g fill="#FFF" fill-rule="evenodd">
        <path fill="#5BC20F" d="M39 1C18 1 1 18 1 39s17 38 38 38 38-17 38-38S60 1 39 1zm32.6 28.6l-4.7 8.1h-13l-6.3-10.9 7-12.2h7.8c4.3 4.1 7.5 9.2 9.2 15zM23.2 63.4h-7.7c-4.2-4.1-7.4-9.2-9.1-15l4.6-8h13.1l6.2 10.8-7.1 12.2zm-7.7-48.8h7.7l7.2 12.3-6.2 10.8h-13l-4.7-8.1c1.6-5.8 4.8-11 9-15zm32.9-8.2l3.9 6.8-7.1 12.2H32.7l-7.1-12.2 3.9-6.8c3-.9 6.2-1.4 9.5-1.4 3.3.1 6.4.6 9.4 1.4zM29.5 71.5l-3.9-6.7 7.1-12.2h12.7l7.1 12.2-3.9 6.7c-3 .9-6.2 1.4-9.6 1.4-3.3 0-6.5-.5-9.5-1.4zm33-8.1h-7.7l-7.1-12.3 6.2-10.8H67l4.6 8c-1.7 5.9-4.9 11.1-9.1 15.1z"></path>
    </g>
</svg>