<svg xmlns="http://www.w3.org/2000/svg" xmlns:xlink="http://www.w3.org/1999/xlink" viewBox="0 0 299 556"><defs><style>.cls-1{isolation:isolate;}.cls-2{fill:url(#linear-gradient);}.cls-3{fill:url(#linear-gradient-2);}.cls-4{fill:#002e5e;}.cls-5{fill:#fff;}.cls-6{fill:#e3000f;}.cls-7{opacity:0.75;mix-blend-mode:multiply;}.cls-8{fill:url(#linear-gradient-3);}</style><linearGradient id="linear-gradient" x2="299" y1="278" y2="278" gradientUnits="userSpaceOnUse"><stop offset="0" stop-color="#c3912c"/><stop offset=".05" stop-color="#c79733"/><stop offset=".12" stop-color="#d1a745"/><stop offset=".2" stop-color="#e2c264"/><stop offset=".29" stop-color="#fae78f"/><stop offset=".29" stop-color="#fcea92"/><stop offset=".64" stop-color="#f6d269"/><stop offset="1" stop-color="#c3912c"/></linearGradient><linearGradient id="linear-gradient-2" x1="314.53" x2="-14.35" y1="57.51" y2="462.2" xlink:href="#linear-gradient"/><linearGradient id="linear-gradient-3" x1="57.08" x2="241.92" y1="261.37" y2="261.37" gradientUnits="userSpaceOnUse"><stop offset="0" stop-color="#c5922c"/><stop offset=".05" stop-color="#c99833"/><stop offset=".13" stop-color="#d3a845"/><stop offset=".21" stop-color="#e4c264"/><stop offset=".31" stop-color="#fbe68f"/><stop offset=".32" stop-color="#feeb94"/><stop offset=".64" stop-color="#f6d26a"/><stop offset="1" stop-color="#c5922c"/></linearGradient></defs><g class="cls-1"><g id="Layer_1" data-name="Layer 1">
    <path xmlns="http://www.w3.org/2000/svg" d="M73.12 208.9A92.63 92.63 0 0 1 137 169.56c2.06-.28 2.1-.23.23.4-6.18 2.08-12.67 6.23-18.83 10.13a14.15 14.15 0 0 1-1.55.88c-19.85 9.2-33.25 20.3-42.7 28.36-1.78 1.52-1.85.77-1.03-.4zm4.73 4.32C80.12 218 95.25 225.6 98 220.9c3.47-5.87 15.12-29.28 12.77-31.22-5.64-4.68-35.7 17.65-32.92 23.53zm25.46 27.1c-3.7 3.26-4.53 10.5-4.53 21s.82 17.8 4.54 21c4.93 4.3 34.5-13.8 34.53-21s-29.6-25.32-34.52-21zm28.7-61.78c5.74-.4 11.5-.07 17.5-.07s11.75-.33 17.5.07c5.24.36 3.95-2.4 1.1-4.33a32.74 32.74 0 0 0-18.33-5.65h-.54a32.73 32.73 0 0 0-18.33 5.66c-2.85 1.94-4.14 4.7 1.1 4.34zM229 220c-6.6-6.22-21.6 9.6-23.2 13.16-2.12 4.74-1.94 17.82-1.9 28.22s-.22 23.47 1.9 28.22c1.6 3.57 16.6 19.38 23.2 13.16 10.54-9.93 12.65-25.34 12.87-41.37-.17-16.07-2.28-31.47-12.87-41.4zm-48.42-39.9a14.4 14.4 0 0 0 1.55.87c19.82 9.2 33.23 20.3 42.68 28.36 1.78 1.5 1.85.76 1-.42a92.63 92.63 0 0 0-63.8-39.35c-2.06-.28-2.1-.23-.23.4 6.23 2.05 12.7 6.23 18.86 10.14zm40.52 33.12c2.77-5.88-27.28-28.18-32.94-23.53-2.36 1.93 9.3 25.33 12.77 31.2 2.83 4.7 17.95-2.9 20.22-7.7zm-60 48.15c0 7.22 29.6 25.34 34.52 21 3.72-3.25 4.54-10.48 4.54-21s-.82-17.8-4.54-21c-4.85-4.37-34.4 13.78-34.45 21zm14.44-76.17c-8.6-4.3-16.53-5-26.1-5s-17.54.7-26.13 5c-10.34 5.18-23.32 32.2-17.23 42.33 5.15 8.56 30.6 26.1 43.35 26.12s38.2-17.56 43.35-26.12c6.17-10.14-6.77-37.16-17.16-42.34zm-82.4 104.38c2.13-4.74 1.95-17.82 1.9-28.22s.23-23.47-1.9-28.22C91.57 229.58 76.55 213.77 70 220c-10.54 9.93-12.65 25.34-12.87 41.37.22 16 2.33 31.44 12.87 41.37 6.55 6.26 21.56-9.6 23.15-13.16zm25.23 53.07a14 14 0 0 0-1.55-.88c-19.82-9.2-33.22-20.3-42.67-28.36-1.77-1.5-1.84-.75-1 .43A92.63 92.63 0 0 0 137 353.18c2.06.28 2.1.23.23-.4-6.23-2.08-12.7-6.22-18.86-10.13zm-40.52-33.13c-2.77 5.88 27.28 28.2 32.94 23.53 2.35-1.94-9.3-25.34-12.78-31.22-2.78-4.7-17.9 2.87-20.17 7.7zm45.53 28c8.6 4.3 16.53 5 26.12 5s17.52-.7 26.1-5c10.36-5.18 23.34-32.2 17.25-42.33-5.15-8.57-30.6-26.12-43.35-26.13s-38.2 17.56-43.35 26.12c-6.1 10.14 6.85 37.16 17.23 42.34zm101.47-24.13c-9.45 8.06-22.86 19.16-42.68 28.35a14.26 14.26 0 0 0-1.55.88c-6.17 3.9-12.65 8.05-18.83 10.13-1.88.63-1.84.68.22.4a92.63 92.63 0 0 0 63.86-39.36c.8-1.16.75-1.9-1.03-.4zm-3.7-3.9c-2.27-4.82-17.4-12.4-20.17-7.7-3.47 5.88-15.12 29.3-12.77 31.23 5.67 4.68 35.72-17.63 32.95-23.5zM167 344.2c-5.75.4-11.48.06-17.5.06s-11.76.33-17.5-.07c-5.24-.37-3.95 2.4-1.1 4.32a32.74 32.74 0 0 0 18.33 5.66h.54a32.75 32.75 0 0 0 18.33-5.66c2.85-1.92 4.14-4.7-1.1-4.33z" fill="#0c122a"/>
</g></g></svg>